<svg width="15" height="15" viewBox="0 0 15 15" fill="none" xmlns="http://www.w3.org/2000/svg">
<g clip-path="url(#clip0_2_17091)">
<path d="M14.0929 3.61197C13.6053 3.828 13.0816 3.97396 12.5311 4.03993C13.0991 3.70001 13.5242 3.16501 13.7268 2.53477C13.1931 2.85179 12.6089 3.07494 11.9998 3.19452C11.5901 2.75713 11.0475 2.46723 10.4562 2.36981C9.86495 2.2724 9.25804 2.37292 8.72974 2.65577C8.20144 2.93862 7.7813 3.38798 7.53455 3.93408C7.2878 4.48018 7.22825 5.09247 7.36514 5.67588C6.28367 5.62158 5.2257 5.34049 4.25989 4.85085C3.29408 4.3612 2.44202 3.67395 1.75901 2.8337C1.52547 3.23655 1.39118 3.70363 1.39118 4.20108C1.39092 4.64889 1.5012 5.08984 1.71223 5.48481C1.92326 5.87978 2.22852 6.21655 2.60092 6.46525C2.16903 6.45151 1.74667 6.33481 1.36899 6.12486V6.1599C1.36895 6.78797 1.58621 7.39671 1.9839 7.88284C2.38159 8.36896 2.93522 8.70253 3.55084 8.82693C3.1502 8.93536 2.73015 8.95133 2.32242 8.87363C2.49612 9.41405 2.83446 9.88663 3.29008 10.2252C3.7457 10.5638 4.29579 10.7514 4.86334 10.7618C3.89989 11.5181 2.71003 11.9284 1.48518 11.9266C1.26821 11.9266 1.05142 11.914 0.835938 11.8886C2.07923 12.688 3.52652 13.1123 5.00463 13.1106C10.0082 13.1106 12.7436 8.96647 12.7436 5.37228C12.7436 5.25551 12.7407 5.13757 12.7354 5.0208C13.2675 4.63603 13.7267 4.15956 14.0917 3.61372L14.0929 3.61197Z" fill="white"/>
</g>
<defs>
<clipPath id="clip0_2_17091">
<rect width="14.0124" height="14.0124" fill="white" transform="translate(0.288086 0.729492)"/>
</clipPath>
</defs>
</svg>
