<svg width="15" height="15" viewBox="0 0 15 15" fill="none" xmlns="http://www.w3.org/2000/svg">
<path fill-rule="evenodd" clip-rule="evenodd" d="M6.3345 5.96601H8.50292V7.04614C8.81528 6.42492 9.61632 5.86676 10.8196 5.86676C13.1264 5.86676 13.6741 7.10335 13.6741 9.3722V13.5742H11.3387V9.88891C11.3387 8.59684 11.0263 7.8682 10.2311 7.8682C9.12823 7.8682 8.6699 8.65348 8.6699 9.88832V13.5742H6.3345V5.96601ZM2.32987 13.4749H4.66527V5.86676H2.32987V13.4749ZM4.99982 3.38598C4.9999 3.58173 4.96108 3.77554 4.88561 3.95616C4.81013 4.13677 4.69951 4.30059 4.56018 4.43808C4.27783 4.71869 3.89564 4.87576 3.49757 4.8748C3.10019 4.87453 2.71889 4.71786 2.43613 4.43866C2.29729 4.3007 2.18705 4.13671 2.11171 3.95607C2.03636 3.77543 1.99741 3.5817 1.99707 3.38598C1.99707 2.99071 2.15471 2.61237 2.43671 2.33329C2.71923 2.05372 3.10069 1.89698 3.49815 1.89716C3.89634 1.89716 4.27818 2.05421 4.56018 2.33329C4.84159 2.61237 4.99982 2.99071 4.99982 3.38598Z" fill="white"/>
</svg>
