<svg width="334" height="226" viewBox="0 0 334 226" fill="none" xmlns="http://www.w3.org/2000/svg">
<path d="M0.0729471 223.814C0.0729471 224.673 0.770011 225.371 1.62988 225.371C2.48975 225.371 3.18682 224.673 3.18682 223.814C3.18682 222.954 2.48975 222.257 1.62988 222.257C0.770011 222.257 0.0729471 222.954 0.0729471 223.814ZM123.655 143.826L123.363 143.806L123.655 143.826ZM113.729 179.441L113.442 179.386L113.729 179.441ZM1.62988 223.814C1.84469 224.011 1.84515 224.011 1.84609 224.01C1.84705 224.009 1.84846 224.007 1.85037 224.005C1.85417 224.001 1.85988 223.995 1.86748 223.987C1.88268 223.97 1.90544 223.945 1.93564 223.913C1.99605 223.847 2.08622 223.75 2.20519 223.621C2.44311 223.364 2.7962 222.984 3.25664 222.49C4.17752 221.502 5.5278 220.06 7.24506 218.246C10.6796 214.616 15.5819 209.495 21.4526 203.526C33.1946 191.589 48.8074 176.267 64.2963 162.722C79.7946 149.17 95.1383 137.424 106.348 132.611C109.147 131.408 111.676 130.645 113.875 130.389C116.074 130.133 117.925 130.387 119.389 131.198C122.299 132.808 123.849 136.722 123.363 143.806L123.946 143.846C124.435 136.719 122.902 132.474 119.672 130.687C118.067 129.798 116.083 129.544 113.807 129.809C111.532 130.073 108.947 130.859 106.118 132.074C94.8133 136.929 79.4072 148.733 63.912 162.283C48.4074 175.841 32.7831 191.175 21.0363 203.117C15.1626 209.088 10.2576 214.213 6.82099 217.844C5.10265 219.66 3.75137 221.103 2.82957 222.092C2.36868 222.586 2.01515 222.967 1.7768 223.224C1.65762 223.353 1.56724 223.451 1.50663 223.517C1.47632 223.549 1.45346 223.574 1.43816 223.591C1.43051 223.599 1.42475 223.605 1.4209 223.61C1.41897 223.612 1.41752 223.613 1.41655 223.614C1.41557 223.615 1.41507 223.616 1.62988 223.814ZM123.363 143.806C122.873 150.966 121.077 156.291 119.06 161.613C117.042 166.933 114.796 172.263 113.442 179.386L114.016 179.495C115.358 172.434 117.581 167.159 119.606 161.82C121.63 156.48 123.449 151.091 123.946 143.846L123.363 143.806ZM113.442 179.386C112.147 186.202 111.868 191.491 112.501 195.407C113.135 199.327 114.691 201.91 117.095 203.237C119.489 204.559 122.652 204.594 126.41 203.59C130.174 202.584 134.579 200.525 139.5 197.593C159.175 185.868 187.323 160.035 216.091 130.831C244.867 101.619 274.287 69.0078 296.513 43.7005C307.626 31.0466 316.941 20.2182 323.478 12.5532C326.746 8.7207 329.32 5.67902 331.076 3.59539C331.955 2.55357 332.629 1.75126 333.083 1.20937C333.311 0.938421 333.483 0.732577 333.599 0.594449C333.657 0.525385 333.7 0.473249 333.729 0.43837C333.744 0.42093 333.755 0.407804 333.762 0.399033C333.766 0.394647 333.769 0.391345 333.77 0.389147C333.772 0.386939 333.773 0.385824 333.549 0.19873C333.325 0.0116367 333.324 0.0127198 333.322 0.0148967C333.32 0.017084 333.318 0.0203546 333.314 0.0247191C333.307 0.0334481 333.296 0.0465315 333.281 0.0639287C333.252 0.0987231 333.209 0.150772 333.151 0.21975C333.036 0.357705 332.863 0.563372 332.636 0.83414C332.182 1.37568 331.508 2.17761 330.63 3.21904C328.874 5.30191 326.301 8.34275 323.033 12.1744C316.498 19.8376 307.185 30.6638 296.074 43.3152C273.852 68.6187 244.44 101.221 215.675 130.422C186.903 159.631 158.803 185.41 139.201 197.091C134.302 200.01 129.949 202.04 126.26 203.026C122.565 204.013 119.58 203.942 117.377 202.726C115.185 201.516 113.695 199.13 113.078 195.314C112.46 191.495 112.726 186.282 114.016 179.495L113.442 179.386Z" fill="white"/>
</svg>
